<?xml version="1.0" encoding="iso-8859-1"?>
<!-- Uploaded to: SVG Repo, www.svgrepo.com, Generator: SVG Repo Mixer Tools -->
<svg fill="#000000" height="800px" width="800px" version="1.1" id="Layer_1" xmlns="http://www.w3.org/2000/svg" xmlns:xlink="http://www.w3.org/1999/xlink" 
	 viewBox="0 0 512 512" xml:space="preserve" >
<g>
	<g>
		<path d="M511.869,340.119c-5.166-56.64-34.346-109.06-82.164-147.606c-38.427-30.976-86.184-50.68-137.235-57.06
			c6.326-12.285,9.623-26.108,9.623-35.809c0-25.417-20.677-46.093-46.093-46.093c-25.417,0-46.093,20.677-46.093,46.093
			c0,9.701,3.297,23.524,9.623,35.809c-51.051,6.38-98.808,26.083-137.235,57.06C34.478,231.06,5.299,283.48,0.131,340.119
			c-0.815,8.942,2.19,17.877,8.242,24.514c3.851,4.222,8.736,7.297,14.087,8.982l9.911,49.554
			c4.091,20.444,22.19,35.281,43.038,35.281h361.185c20.848,0,38.946-14.838,43.036-35.281l9.911-49.549
			c5.357-1.683,10.245-4.755,14.094-8.974C509.682,358.012,512.685,349.072,511.869,340.119z M256.001,87.105
			c6.915,0,12.54,5.625,12.54,12.54c0,9.808-7.448,25.73-12.54,29.575c-5.092-3.845-12.54-19.768-12.54-29.575
			C243.461,92.73,249.085,87.105,256.001,87.105z M446.727,416.588c-0.962,4.815-5.225,8.31-10.135,8.31H75.408
			c-4.91,0-9.172-3.495-10.135-8.309L56.975,375.1h398.05L446.727,416.588z M33.703,341.547
			c9.941-98.152,107.216-174.808,222.297-174.808c115.089,0,212.368,76.648,222.299,174.808
			C462.797,341.547,62.941,341.547,33.703,341.547z" />
	</g>
</g>
</svg>