<?xml version="1.0" encoding="iso-8859-1"?>
<!-- Uploaded to: SVG Repo, www.svgrepo.com, Generator: SVG Repo Mixer Tools -->
<svg fill="#000000" height="800px" width="800px" version="1.1" id="Layer_1" xmlns="http://www.w3.org/2000/svg" xmlns:xlink="http://www.w3.org/1999/xlink" 
	 viewBox="0 0 511.999 511.999" xml:space="preserve">
<g>
	<g>
		<path d="M442.264,279.152c-1.2-1.2-2.416-2.379-3.638-3.55c2.539-39.237,13.472-73.985,25.02-110.644
			c12.344-39.187,8.014-75.939-12.189-103.486c-23.052-31.429-65.094-48.739-118.382-48.739H214.739
			c-53.287,0-95.329,17.309-118.381,48.739C76.154,89.018,71.825,125.77,84.169,164.958c11.552,36.671,22.488,71.429,25.022,110.681
			c-8.602,8.24-16.643,17.154-24.011,26.722l-49.526-20.513L0,367.921l43.83,18.154c-5.323,19.968-8.014,40.57-8.014,61.433v51.759
			h476.184v-51.759C512,383.911,487.233,324.121,442.264,279.152z M121.399,79.838c17.052-23.248,50.2-36.051,93.339-36.051h118.337
			c43.14,0,76.289,12.803,93.34,36.051c14.408,19.646,17.04,45.852,7.611,75.788c-9.628,30.566-19.512,61.946-24.207,96.33
			c-35.417-24.726-76.768-39.237-120.384-42.027V178.36h31.055v-31.055h-93.166v31.055h31.055v31.58
			c-43.617,2.85-85.15,17.631-120.371,42.12c-4.688-34.424-14.582-65.838-24.22-96.435C104.359,125.69,106.99,99.484,121.399,79.838
			z M342.187,252.054c-20.344,12.668-43.888,19.473-68.279,19.473c-24.385,0-47.921-6.8-68.262-19.461
			c21.664-7.575,44.702-11.594,68.262-11.594C297.823,240.471,320.798,244.561,342.187,252.054z M66.872,468.211v-20.704
			c0-22.395,3.56-44.433,10.583-65.504l4.572-13.72l-41.451-17.17l11.884-28.691l43.724,18.11l7.126-10.34
			c18.321-26.587,42.259-48.093,69.608-63.383c28.522,23.144,63.97,35.774,100.989,35.774c37.012,0,72.453-12.624,100.973-35.76
			c63.232,35.477,106.064,103.168,106.064,180.686v20.703H66.872z"/>
	</g>
</g>
</svg>